# xmcd
#
# Track frame offsets:
# 150
# 5532
# 15302
# 29060
# 44855
# 65405
# 89687
# 108022
# 126472
# 144580
# 178745
# 206105
# 232650
# 248835
# 272435
# 295695
# 337735
#
# Disc length: 4647 seconds
#
#
# Revision: 3
# Processed by: cddbd v1.5.2PL0 Copyright (c) Steve Scherf et al.
# Submitted via: FreeRIP 2.951 
#
DISCID=f1122511
DTITLE=Alicia Keys - Unplugged
DYEAR=2005
DGENRE=Neo-Soul, R&B
TTITLE0=Intro Alicia's Prayer (Acappella)
TTITLE1=Karma
TTITLE2=Heartburn
TTITLE3=A Woman's Worth [Live]
TTITLE4=Unbreakable
TTITLE5=How Come You Don't Call Me
TTITLE6=If I Was Your Woman
TTITLE7=If I Ain't Got You
TTITLE8=Every Little Bit Hurts
TTITLE9=Streets of New York [City Life]
TTITLE10=Wild Horses
TTITLE11=Diary
TTITLE12=You Don't Know My Name
TTITLE13=Stolen Moments
TTITLE14=Fallin'
TTITLE15=Love It or Leave It Alone - Welcome to Jamrock
TTITLE16=DATA
EXTD=
EXTT0=
EXTT1=
EXTT2=
EXTT3=
EXTT4=
EXTT5=
EXTT6=
EXTT7=
EXTT8=
EXTT9=
EXTT10=
EXTT11=
EXTT12=
EXTT13=
EXTT14=
EXTT15=
EXTT16=
PLAYORDER=
